<?xml version="1.0" encoding="utf-8"?>
<!-- Generator: Adobe Illustrator 16.0.0, SVG Export Plug-In . SVG Version: 6.00 Build 0)  -->
<!DOCTYPE svg PUBLIC "-//W3C//DTD SVG 1.1//EN" "http://www.w3.org/Graphics/SVG/1.1/DTD/svg11.dtd">
<svg version="1.1" id="Layer_1" xmlns="http://www.w3.org/2000/svg" xmlns:xlink="http://www.w3.org/1999/xlink" x="0px" y="0px"
	 width="178.004px" height="50.078px" viewBox="0 0 178.004 50.078" enable-background="new 0 0 178.004 50.078"
	 xml:space="preserve">
<g>
	<g>
		<g>
			<g>
				<path fill="#FFFFFF" d="M66.637,29.66c-2.516,0-4.773-0.87-6.188-2.389c-1.271-1.359-1.779-3.127-1.435-4.981l0.574-3.158
					c0.725-4.136,5.37-7.503,10.353-7.503l0.734-0.004c1.14-0.004,3.345-0.011,5.013-0.011c1.32,0,2.028,0.005,2.164,0.015h0.278
					l0.916-5.392h-0.207c-0.102-0.005-0.877-0.006-2.316-0.006c-1.854,0-4.293,0.003-5.288,0.004l-0.443,0.002
					c-8.513,0-16.448,5.743-17.689,12.804l-0.57,3.159c-0.57,3.229,0.355,6.325,2.609,8.714c2.476,2.629,6.355,4.139,10.645,4.139
					h14.456l0.956-5.393H66.637z"/>
				<polygon fill="#FFFFFF" points="109.093,11.686 110.067,6.237 81.102,6.237 80.135,11.689 91.132,11.689 91.106,11.82 
					87.052,35.052 93.62,35.052 97.729,11.686 				"/>
				<polygon fill="#FFFFFF" points="112.036,6.237 106.913,35.052 113.481,35.052 118.556,6.237 				"/>
				<path fill="#FFFFFF" d="M152.948,6.237h-7.064l-13.795,23.249l-5.514-23.249h-6.938l6.227,25.733
					c0.439,1.873,2.748,3.342,5.244,3.342c2.564,0,5.316-1.4,6.402-3.258L152.948,6.237z"/>
				<path fill="#FFFFFF" d="M161.335,6.237c-4.719,0-9.109,3.159-9.785,7.046l-2.607,14.632c-0.316,1.78,0.201,3.491,1.459,4.821
					c1.387,1.472,3.545,2.316,5.922,2.316h15.84l0.967-5.45h-15.949c-0.557,0-1.051-0.187-1.359-0.511
					c-0.281-0.29-0.393-0.674-0.328-1.078l0.844-4.615h14.783l0.984-5.455h-14.785l0.787-4.57c0.152-0.928,1.217-1.687,2.369-1.687
					h15.748l0.967-5.449H161.335z"/>
			</g>
			<path fill="#FFFFFF" d="M49.028,25.638c-1.64,0-4.243,0.109-7.339,0.619l-1.613,8.816h7.986l1.657-9.431
				C49.518,25.642,49.281,25.638,49.028,25.638z"/>
			<path fill="#FFFFFF" d="M43.26,9.076c-0.002,0-0.003,0-0.005,0c-0.312,0-1.15,0.105-2.186,1.086L30.28,20.934
				c-0.913,0.149-9.371,1.325-14.865,3.47L34.008,6.777C39.583,1.5,44.091,0.931,45.773,0.931c0.011,0,0.02,0,0.029,0v0.014
				c1.397,0,3.975,0.287,5.593,2.215c1.336,1.596,1.734,3.994,1.183,7.123l-2.247,12.06l-8.004,0.102l2.192-11.632
				c0.102-0.58,0.028-1.026-0.22-1.323c-0.301-0.357-0.779-0.411-1.039-0.411V9.076z"/>
		</g>
		<g>
			<g>
				<path fill="#FFFFFF" d="M109.985,40.839c-1.424,0-2.32,0.718-3.07,1.625l0.246-1.438h-1.389l-1.545,8.848h1.387l0.875-4.998
					c0.307-1.676,1.621-2.856,3.062-2.856c1.299,0,2.162,0.684,2.287,1.849c0.029,0.29,0.02,0.703-0.041,0.993l-0.871,5.013h1.385
					l0.846-4.929c0.078-0.463,0.133-0.957,0.09-1.369C113.067,41.899,111.786,40.839,109.985,40.839z"/>
				<path fill="#FFFFFF" d="M119.563,40.839c-3.115,0-5.125,2.771-4.84,5.475c0.238,2.241,2.059,3.764,4.525,3.764
					c1.639,0,2.676-0.581,3.516-1.315l-0.812-0.875c-0.779,0.649-1.547,1.045-2.754,1.045c-1.727,0-2.924-1.062-3.094-2.67
					c-0.01-0.104-0.021-0.206-0.016-0.307h7.279c0.156-0.549,0.223-1.13,0.156-1.73C123.329,42.378,121.923,40.839,119.563,40.839z
					 M122.175,44.893h-6c0.352-1.627,1.598-2.942,3.434-2.942c1.605,0,2.438,1.062,2.566,2.274
					C122.204,44.517,122.19,44.721,122.175,44.893z"/>
				<polygon fill="#FFFFFF" points="143.411,41.026 139.679,48.075 138.403,40.994 137.253,40.994 133.501,48.075 132.265,41.026 
					130.86,41.026 132.546,49.942 133.751,49.942 137.495,42.961 138.778,49.942 140.003,49.942 144.853,41.026 				"/>
				<path fill="#FFFFFF" d="M149.749,40.839c-2.971,0-5.207,2.513-4.916,5.271c0.244,2.289,2.098,3.968,4.654,3.968
					c2.918,0,5.232-2.463,4.934-5.285C154.175,42.499,152.306,40.839,149.749,40.839z M149.454,48.898
					c-1.73,0-3.029-1.028-3.219-2.822c-0.217-2.056,1.402-4.074,3.549-4.074c1.729,0,3.027,1.043,3.217,2.84
					C153.226,46.948,151.544,48.898,149.454,48.898z"/>
				<path fill="#FFFFFF" d="M157.972,43.336l0.385-2.311h-1.385l-1.547,8.848h1.387l0.617-3.493
					c0.457-2.669,2.342-4.086,4.377-4.086h0.09l0.246-1.421C160.276,40.771,158.942,41.798,157.972,43.336z"/>
				<polygon fill="#FFFFFF" points="169.394,41.021 166.167,43.919 164.345,45.515 165.44,39.424 164.054,39.424 162.173,49.874 
					163.56,49.874 163.968,47.597 166.052,45.76 168.911,49.892 170.462,49.892 167.071,44.895 171.333,41.021 				"/>
				<path fill="#FFFFFF" d="M127.481,39.21h-1.391l-0.525,2.98h-0.014l-0.91,5.165c-0.043,0.276-0.059,0.618-0.029,0.927
					c0.121,1.144,1.123,1.743,2.455,1.743c0.541,0,0.984-0.068,1.449-0.258l0.215-1.197c-0.484,0.191-0.906,0.274-1.32,0.274
					c-0.791,0-1.311-0.29-1.373-0.906c-0.021-0.188-0.014-0.445,0-0.649l0.594-3.372h0.018l0.305-1.727h3.361l0.201-1.165h-3.357
					L127.481,39.21z"/>
			</g>
		</g>
		<path fill="#FFA300" d="M49.365,22.039c-8.735,0-34.755,0.006-47.428,13.013H13.5c13.588-11.533,35.141-11.673,36.081-11.673
			c0.193,0,0.374,0.002,0.558,0.012l0.248-1.351C50.043,22.039,49.708,22.039,49.365,22.039z"/>
	</g>
	<g>
		<path fill="#FFFFFF" d="M172.745,50.023c-0.705,0-1.277-0.572-1.277-1.275c0-0.711,0.572-1.276,1.277-1.276
			c0.709,0,1.275,0.565,1.275,1.276C174.021,49.451,173.454,50.023,172.745,50.023z M172.745,47.646
			c-0.615,0-1.107,0.487-1.107,1.102c0,0.607,0.492,1.106,1.107,1.106c0.607,0,1.1-0.499,1.1-1.106
			C173.845,48.133,173.353,47.646,172.745,47.646z M173.093,49.482l-0.379-0.578h-0.264v0.578h-0.193v-1.463h0.596
			c0.248,0,0.463,0.175,0.463,0.445c0,0.325-0.287,0.433-0.373,0.433l0.393,0.585H173.093z M172.853,48.187h-0.402v0.542h0.402
			c0.127,0,0.266-0.114,0.266-0.265C173.118,48.302,172.979,48.187,172.853,48.187z"/>
	</g>
</g>
</svg>
